<svg width="12" height="13" viewBox="0 0 12 13" fill="none" xmlns="http://www.w3.org/2000/svg">
<path d="M2.16765 12.9001C1.87598 12.9001 1.62806 12.7964 1.4239 12.589C1.21973 12.3816 1.11765 12.1297 1.11765 11.8334V1.7001H0.400146V0.633431H3.69015V0.100098H8.31015V0.633431H11.6001V1.7001H10.8826V11.8334C10.8826 12.1179 10.7776 12.3668 10.5676 12.5801C10.3576 12.7934 10.1126 12.9001 9.83265 12.9001H2.16765ZM9.83265 1.7001H2.16765V11.8334H9.83265V1.7001ZM4.02265 10.3045H5.07265V3.21121H4.02265V10.3045ZM6.92765 10.3045H7.97765V3.21121H6.92765V10.3045ZM2.16765 1.7001V11.8334V1.7001Z" fill="#FF3030"/>
</svg>
